<?xml version="1.0" encoding="UTF-8" standalone="no"?>
<!-- Uploaded to: SVG Repo, www.svgrepo.com, Generator: SVG Repo Mixer Tools -->

<svg viewBox="0 0 24 24" fill="none" version="1.1" id="svg4" sodipodi:docname="edit-pencil-01-svgrepo-com.svg" inkscape:version="1.2.2 (732a01da63, 2022-12-09)"
   xmlns:inkscape="http://www.inkscape.org/namespaces/inkscape"
   xmlns:sodipodi="http://sodipodi.sourceforge.net/DTD/sodipodi-0.dtd"
   xmlns="http://www.w3.org/2000/svg"
   xmlns:svg="http://www.w3.org/2000/svg">
   <defs id="defs8" />
   <sodipodi:namedview id="namedview6" pagecolor="#ffffff" bordercolor="#666666" borderopacity="1.0" inkscape:showpageshadow="2" inkscape:pageopacity="0.0" inkscape:pagecheckerboard="0" inkscape:deskcolor="#d1d1d1" showgrid="false" inkscape:zoom="11.72383" inkscape:cx="5.5442631" inkscape:cy="21.238792" inkscape:window-width="1680" inkscape:window-height="979" inkscape:window-x="1912" inkscape:window-y="-8" inkscape:window-maximized="1" inkscape:current-layer="svg4" />
   <g id="Edit / Edit_Pencil_01" transform="matrix(1.4707173,0,0,1.4707173,-5.3440414,-5.9531815)" style="fill:none;stroke:#000000;stroke-width:0.732742;stroke-dasharray:none;stroke-opacity:1">
      <path id="Vector" d="M 12,8.00012 4,16.0001 v 4 h 4 l 8,-8 m -4,-3.99998 2.8686,-2.86866 0.0018,-0.0017 c 0.3948,-0.39488 0.5926,-0.59267 0.8206,-0.66675 0.2009,-0.06526 0.4172,-0.06526 0.6181,0 0.2278,0.07403 0.4254,0.27159 0.8197,0.66591 l 1.7398,1.7398 c 0.396,0.39602 0.5941,0.59412 0.6683,0.82245 0.0653,0.20084 0.0652,0.41718 0,0.61803 -0.0741,0.22816 -0.2719,0.42596 -0.6674,0.82141 l -9e-4,8.5e-4 L 16,12.0001 m -4,-3.99998 4,3.99998" stroke="#000000" stroke-width="2" stroke-linecap="round" stroke-linejoin="round" style="fill:none;stroke:#000000;stroke-width:0.732742;stroke-dasharray:none;stroke-opacity:1" />
   </g>
</svg>
