<?xml version="1.0" encoding="UTF-8" standalone="no"?>
<svg
   version="1.1"
   viewBox="0 0 80 22"
   id="svg36"
   sodipodi:docname="image_2023-04-07_164135938.svg"
   inkscape:version="1.2.2 (732a01da63, 2022-12-09)"
   xmlns:inkscape="http://www.inkscape.org/namespaces/inkscape"
   xmlns:sodipodi="http://sodipodi.sourceforge.net/DTD/sodipodi-0.dtd"
   xmlns="http://www.w3.org/2000/svg"
   xmlns:svg="http://www.w3.org/2000/svg">
  <defs
     id="defs40" />
  <sodipodi:namedview
     id="namedview38"
     pagecolor="#ffffff"
     bordercolor="#666666"
     borderopacity="1.0"
     inkscape:showpageshadow="2"
     inkscape:pageopacity="0.0"
     inkscape:pagecheckerboard="0"
     inkscape:deskcolor="#d1d1d1"
     showgrid="false"
     inkscape:zoom="6.9771348"
     inkscape:cx="55.036919"
     inkscape:cy="7.5962414"
     inkscape:window-width="1680"
     inkscape:window-height="979"
     inkscape:window-x="1912"
     inkscape:window-y="-8"
     inkscape:window-maximized="1"
     inkscape:current-layer="svg36" />
  <path
     fill="#1f1f1f"
     d="m 54.769815,4.542549 q 0.06108,-1.080121 0.08519,-2.161849 0.0064,-0.29414 0.392187,-0.933855 0.24592,-0.409867 0.52238,-0.644536 0.266816,-0.22824 0.734546,-0.321465 0.919389,-0.184842 1.673223,0.183235 0.347182,0.168769 0.244313,0.541668 -0.229847,0.819735 -0.8342,0.806876 -0.52238,-0.01286 -0.749012,0.34236 -0.130194,0.205737 -0.154303,0.721688 -0.03375,0.760263 -0.03215,1.523742 a 0.08036614,0.08197346 89.4 0 0 0.08197,0.07876 l 1.215136,-0.008 a 0.2121666,0.08197346 74.1 0 1 0.120549,0.160732 q 0.242705,0.745798 -0.271638,1.223173 a 0.24270573,0.21538124 18.8 0 1 -0.13823,0.05786 l -0.964393,0.06912 a 0.08679543,0.09161739 88.2 0 0 -0.08519,0.08519 l -0.07715,4.421745 a 0.10126133,0.09965401 84.8 0 1 -0.07876,0.09644 q -0.660609,0.133408 -1.506061,0.107691 a 0.1414444,0.1414444 0 0 1 -0.13823,-0.144659 q 0.05786,-2.279184 -0.07072,-4.389598 A 0.13983708,0.16233959 11.1 0 0 54.668552,6.233495 Q 54.485317,6.125805 54.168675,6.112946 A 0.1205492,0.12215653 84.2 0 1 54.057769,6.022936 Q 53.908288,5.4443 54.006339,4.881737 a 0.13662243,0.11411991 89.9 0 1 0.09001,-0.107691 l 0.586673,-0.143051 a 0.09161739,0.11733456 82.8 0 0 0.08679,-0.0884 z"
     id="path4"
     style="fill:#ffffff;fill-opacity:1;stroke:none;stroke-width:0.160732;stroke-opacity:1" />
  <path
     fill="#1f1f1f"
     d="m 78.238339,10.279084 q -0.002,-0.229847 -0.18324,-0.08197 -1.54464,1.261749 -3.3143,0.49827 -0.86313,-0.371291 -1.27943,-1.208706 -0.93225,-1.872531 0.12859,-3.56022 0.7458,-1.186204 2.11523,-1.351759 0.60275,-0.07233 1.20228,0.11412 0.58507,0.181628 1.10584,0.536846 0.18645,0.126979 0.18806,-0.09644 l 0.0386,-4.471572 a 0.08197346,0.0851881 1.1 0 1 0.0836,-0.08358 l 1.59607,0.0064 a 0.08036614,0.08036614 0 0 1 0.0804,0.08037 l -0.0595,10.048981 a 0.09161739,0.08679543 88.4 0 1 -0.082,0.09162 l -1.4691,0.09644 a 0.15269566,0.13822975 88 0 1 -0.14787,-0.151088 z M 75.378909,6.75101 q -0.46773,0.599532 -0.34718,1.269785 0.10447,0.585066 0.61721,1.036723 0.80527,0.705615 1.73912,0.122157 0.53203,-0.332716 0.68954,-0.896886 0.16716,-0.604353 -0.0546,-1.213529 -0.13823,-0.380935 -0.42754,-0.589887 -0.32147,-0.233062 -0.71848,-0.261994 -0.42594,-0.03054 -0.80366,0.06912 -0.4179,0.107691 -0.69436,0.464516 z"
     id="path6"
     style="fill:#ffffff;fill-opacity:1;stroke:none;stroke-width:0.160732;stroke-opacity:1" />
  <path
     fill="#1f1f1f"
     d="M 10.259835,14.144695 Q 10.079815,16.107236 9.649052,18.052096 9.473854,18.841292 8.864679,19.836225 8.070661,21.134941 6.743013,21.474086 5.431437,21.810017 4.377034,21.089936 3.267981,20.334495 3.095998,18.74646 A 0.20091534,0.20091534 0 0 0 2.917585,18.568047 Q 0.323366,18.294802 0.005116,15.641112 -0.023814,15.404836 0.109592,14.94032 0.207642,14.59796 0.379622,14.295783 1.233111,12.80258 2.89026,12.174117 3.20851,12.053568 2.87901,11.969987 2.141249,11.778716 1.56422,11.29009 1.006479,10.819144 0.595004,10.211576 0.262289,9.721343 0.109593,9.141099 -0.043103,8.560856 0.074233,7.990256 0.371588,6.556524 1.858361,5.984317 2.364668,5.788224 2.874189,5.593738 A 0.19609337,0.18966408 0.9 0 0 2.98188,5.492477 Q 3.126539,5.177441 3.219763,4.844726 3.357993,4.354492 3.433537,4.19376 4.034676,2.938441 5.349466,2.661981 6.529241,2.414454 7.720267,3.137749 8.882361,3.844971 9.32759,5.285132 q 0.08519,0.274852 0.276459,0.05947 0.20413,-0.229847 0.417904,-0.662217 0.668646,-1.348544 1.930395,-1.83717 1.269785,-0.491841 2.446345,0.07715 1.382297,0.667039 1.596071,2.488135 a 0.26520825,0.26681557 0.9 0 0 0.223418,0.231455 q 0.943499,0.144659 1.621789,0.583458 0.718473,0.467731 1.035116,1.285858 0.331108,0.856703 0.109297,1.763233 -0.175198,0.716866 -0.724902,1.353366 -0.543275,0.628463 -1.226387,0.985289 -0.519166,0.27003 -1.264963,0.504699 -0.554527,0.175198 -1.322827,0.306999 -1.369439,0.234669 -2.756558,0.405045 -0.332716,0.04018 -0.106084,0.286103 0.740976,0.800447 1.570355,1.510884 0.916174,0.782766 1.784128,1.234423 1.891819,0.980467 4.072956,1.101017 a 0.09161739,0.09161739 0 0 1 0.0868,0.0868 l 0.07233,1.324434 a 0.07393684,0.07393684 0 0 1 -0.07715,0.07715 q -2.624758,-0.09965 -4.894298,-1.287465 -0.925817,-0.483804 -2.031655,-1.395156 -0.953143,-0.785981 -1.846814,-1.645899 -0.05304,-0.05143 -0.05947,0.0225 z M 7.006614,4.500759 Q 6.162769,3.782285 5.275527,4.364136 4.27738,5.019924 4.86566,6.119333 5.105151,6.567776 5.500552,7.048365 A 0.17359085,0.17519818 47.7 0 1 5.489302,7.283034 L 4.732253,8.040083 a 0.15269566,0.15269566 0 0 1 -0.212167,0.0032 Q 4.033068,7.580374 3.351563,7.350527 2.531828,7.075675 1.970873,7.569123 1.712094,7.797362 1.597974,8.11722 1.466173,8.482082 1.572254,8.809976 q 0.467731,1.453019 2.054158,1.859672 2.444738,0.623641 4.76089,0.659002 0.324679,0.0048 0.326286,-0.321464 Q 8.729658,8.883913 8.31015,6.924586 8.099591,5.944119 7.573997,5.092238 7.42773,4.859177 7.006612,4.500744 Z m 6.324815,2.774239 q 0.397008,-0.413082 0.713651,-0.885635 0.376113,-0.559349 0.345574,-1.04476 -0.04983,-0.776337 -0.830986,-1.174953 -0.323072,-0.163947 -0.665431,-0.045 -1.131555,0.392187 -1.628218,1.42891 -0.347182,0.724902 -0.581851,2.001117 -0.298962,1.618574 -0.355218,3.386629 -0.01125,0.31182 0.298962,0.326286 2.7437,0.13823 5.440787,-0.859917 1.04476,-0.387365 1.411229,-1.38712 0.180021,-0.491841 0.045,-0.912959 -0.162339,-0.506307 -0.642929,-0.744191 -0.556133,-0.276459 -1.125126,-0.06912 -0.255564,0.09323 -0.731331,0.48059 -0.34236,0.278067 -0.692756,0.544882 a 0.09001007,0.08840275 49.1 0 1 -0.118942,-0.0096 L 13.329816,7.390769 a 0.08197346,0.0851881 44.6 0 1 0.0016,-0.115727 z m -7.819625,9.679297 a 0.20091534,0.18644943 47.2 0 1 0,0.274852 q -0.358433,0.324679 -0.597924,0.72651 -0.268423,0.451658 -0.244314,0.88242 0.02411,0.425941 0.27646,0.773122 0.233062,0.323072 0.599531,0.430763 0.38415,0.110905 0.777945,-0.01125 0.731331,-0.226633 1.17013,-0.797232 0.286104,-0.371292 0.548097,-1.237639 0.720081,-2.362764 0.723296,-4.879832 A 0.28931809,0.28771076 88.9 0 0 8.466063,12.826691 q -2.296864,0.09483 -4.51497,0.605961 -1.075299,0.247528 -1.816274,0.962786 -0.450051,0.433977 -0.54649,1.014221 -0.101262,0.602746 0.234669,1.04476 0.274852,0.363254 0.739368,0.469338 0.380936,0.08679 0.813306,-0.09644 0.613997,-0.258779 1.133162,-0.766693 a 0.12697849,0.12215653 46.8 0 1 0.178413,0.0096 z"
     id="path8"
     style="stroke-width:0.160732" />
  <path
     fill="#65a165"
     d="m 7.006614,4.500759 q 0.421118,0.358433 0.567385,0.591494 0.525594,0.851881 0.736153,1.832348 0.419512,1.959327 0.403438,4.0826 -0.0016,0.326286 -0.326286,0.321464 Q 6.071152,11.293305 3.626414,10.669663 2.039987,10.26301 1.572256,8.809991 1.466172,8.482097 1.597976,8.117235 1.712096,7.797377 1.970875,7.569138 2.53183,7.07569 3.351565,7.350542 4.03307,7.580389 4.520088,8.043298 a 0.15269566,0.15269566 0 0 0 0.212167,-0.0032 L 5.489304,7.283049 A 0.17359085,0.17519818 47.7 0 0 5.500554,7.04838 Q 5.105153,6.567791 4.865662,6.119348 4.277382,5.019939 5.275529,4.364151 6.162771,3.7823 7.006616,4.500774 Z"
     id="path10"
     style="fill:#d8d8ce;fill-opacity:1;stroke-width:0.160732" />
  <path
     fill="#65a165"
     d="m 13.329821,7.390725 0.884028,0.919388 a 0.09001007,0.08840275 49.1 0 0 0.118942,0.0096 q 0.350396,-0.266815 0.692756,-0.544882 0.475767,-0.387365 0.731331,-0.48059 0.568993,-0.207344 1.125126,0.06912 0.48059,0.237884 0.642929,0.744191 0.135016,0.421118 -0.045,0.912959 -0.366469,0.999755 -1.411229,1.38712 -2.697087,0.998147 -5.440787,0.859917 -0.310214,-0.01447 -0.298962,-0.326286 0.05626,-1.768055 0.355218,-3.386629 0.234669,-1.276215 0.581851,-2.001117 0.496663,-1.036723 1.628218,-1.42891 0.342359,-0.118942 0.665431,0.045 0.781159,0.398616 0.830986,1.174953 0.03054,0.485411 -0.345574,1.04476 -0.316643,0.472553 -0.713651,0.885635 a 0.08197346,0.0851881 44.6 0 0 -0.0016,0.115727 z"
     id="path12"
     style="fill:#d8d8ce;fill-opacity:1;stroke-width:0.160732" />
  <path
     fill="#1f1f1f"
     d="m 59.498559,5.487655 q 0.803661,-0.768301 1.986651,-0.900101 1.120303,-0.123764 2.065409,0.477375 1.573569,1.004577 1.388727,2.891573 a 0.08358078,0.0851881 4.1 0 1 -0.0868,0.07715 q -2.081483,-0.08358 -4.164574,0.06269 -0.560955,0.04018 -0.247527,0.507914 1.015828,1.514098 2.939793,0.435585 a 0.32789383,0.56256295 51 0 1 0.435584,-0.06751 l 0.763479,0.343967 q 0.274852,0.123764 0.08037,0.393794 -0.557741,0.77473 -1.454627,1.065655 -1.316397,0.425941 -2.534748,0.03375 -0.977252,-0.313428 -1.551067,-1.068869 -0.599531,-0.787589 -0.675075,-1.864495 -0.04983,-0.729724 0.25235,-1.3389 0.268423,-0.54006 0.802054,-1.049581 z m 1.051189,1.023864 q -0.229847,0.361648 0.1977,0.401831 1.064048,0.09965 2.144169,0.008 0.405045,-0.03375 0.151088,-0.352004 -0.695971,-0.867954 -1.81306,-0.557741 -0.438799,0.120549 -0.679897,0.499877 z"
     id="path14"
     style="fill:#ffffff;fill-opacity:1;stroke:none;stroke-width:0.160732;stroke-opacity:1" />
  <path
     fill="#1f1f1f"
     d="m 24.666268,5.37032 q 1.047975,-0.959572 2.341869,-0.779551 1.179775,0.163947 1.782521,1.223172 0.18645,0.329501 0.188057,0.813306 0.0048,2.050943 -0.01125,4.10028 a 0.0851881,0.08197346 89.4 0 1 -0.08037,0.08519 l -1.628218,0.03697 a 0.07554417,0.07715149 0.6 0 1 -0.07715,-0.08037 q 0.05304,-1.808238 -0.09483,-3.611654 -0.04661,-0.578636 -0.266815,-0.806876 -0.310214,-0.323072 -0.896886,-0.313428 -0.604354,0.0096 -0.943499,0.339145 -0.252349,0.244313 -0.313428,0.850274 -0.165554,1.636254 -0.147873,3.46378 a 0.14948101,0.13822975 89.7 0 1 -0.13823,0.151089 l -1.507669,-0.0016 a 0.18002014,0.16394692 89.7 0 1 -0.163948,-0.17842 l -0.03054,-5.752608 a 0.16716156,0.17037621 84 0 1 0.13823,-0.167162 q 0.749012,-0.147874 1.489988,0.0032 a 0.19609337,0.22181053 79.8 0 1 0.130193,0.07876 q 0.171984,0.229848 0.173591,0.52238 0,0.07394 0.05626,0.02411 z"
     id="path16"
     style="fill:#ffffff;fill-opacity:1;stroke:none;stroke-width:0.160732;stroke-opacity:1" />
  <path
     fill="#1f1f1f"
     d="m 32.048701,8.216889 q 0.07394,0.638107 0.523988,0.986896 0.392186,0.303784 0.986896,0.303784 0.848666,0.0016 1.531778,-0.602746 a 0.18162747,0.19770069 38.4 0 1 0.213774,-0.03375 l 1.054404,0.541668 a 0.14305172,0.15269566 34.5 0 1 0.03536,0.231454 q -1.179775,1.36301 -2.957474,1.372654 -0.72008,0.0032 -1.364617,-0.311821 -1.989865,-0.974037 -1.948075,-3.007301 0.01768,-0.9001 0.520773,-1.60893 0.580243,-0.81652 1.531778,-1.277821 0.443621,-0.215381 0.938677,-0.234669 3.113384,-0.128586 3.579507,2.928542 0.05786,0.382543 -0.315035,0.480589 -0.398616,0.102869 -0.842237,0.0884 -0.655788,-0.0225 -0.667039,-0.0225 -1.375868,0.02411 -2.750129,0.08197 a 0.07393684,0.07554417 85.5 0 0 -0.07233,0.08358 z m 2.202033,-2.028442 q -1.385513,-0.705614 -2.161849,0.5706 a 0.13501511,0.13340778 18.7 0 0 0.101261,0.202523 q 1.277821,0.130193 2.525104,-0.152696 a 0.06268559,0.06268559 0 0 0 0.04179,-0.09001 Q 34.557732,6.344358 34.250734,6.188447 Z"
     id="path18"
     style="fill:#ffffff;fill-opacity:1;stroke:none;stroke-width:0.160732;stroke-opacity:1" />
  <path
     fill="#1f1f1f"
     d="m 50.386646,6.402221 q 0.176806,0.147874 0.358433,0.289318 0.170376,0.133408 0.388972,0.237884 0.490234,0.233062 0.975645,0.477375 0.604354,0.305391 0.855096,0.642929 0.623641,0.839023 0.04179,1.845207 -0.461301,0.798839 -1.554281,1.025471 -1.546244,0.321465 -2.928542,-0.49184 -0.327894,-0.192879 -0.189664,-0.549705 0.173591,-0.445228 0.599531,-0.927425 a 0.08358078,0.08358078 0 0 1 0.115728,-0.0096 q 0.657395,0.540061 1.498024,0.670254 0.413082,0.06429 0.639715,-0.287711 0.268423,-0.417904 0.01607,-0.66061 Q 51.169413,8.631618 50.725788,8.38088 50.248413,8.110849 49.766217,7.85207 49.124895,7.508103 48.898262,7.202712 48.441783,6.588715 48.753603,5.886315 48.985058,5.36072 49.584589,5.013539 51.142085,4.11183 52.998543,5.142124 a 0.09322472,0.08840275 29 0 1 0.03858,0.122157 l -0.509521,0.90653 a 0.09483204,0.08840275 25.9 0 1 -0.117334,0.03536 Q 51.65804,5.878277 51.439445,5.836487 50.722579,5.69665 50.364146,6.2785 a 0.09965401,0.09483204 36 0 0 0.0225,0.123764 z"
     id="path20"
     style="fill:#ffffff;fill-opacity:1;stroke:none;stroke-width:0.160732;stroke-opacity:1" />
  <path
     fill="#1f1f1f"
     d="m 67.639649,8.178313 q -0.01,0.559348 0.46612,0.922603 0.80206,0.61239 1.67965,0.335931 0.2186,-0.06911 0.54971,-0.281282 0.22824,-0.146266 0.45487,-0.292533 a 0.13501511,0.1414444 43.7 0 1 0.13823,-0.0064 l 1.06566,0.567385 a 0.1060833,0.1060833 0 0 1 0.0321,0.160732 q -1.2296,1.522135 -3.02819,1.425696 -1.15406,-0.06269 -1.99469,-0.68472 -0.920997,-0.679897 -1.218351,-1.877353 -0.345575,-1.396763 0.601141,-2.534748 1.15084,-1.387119 2.76459,-1.334078 1.31319,0.045 2.20203,0.818128 1.00619,0.875991 0.87921,2.439916 a 0.17841282,0.18323479 1.7 0 1 -0.1752,0.168768 l -4.33173,0.09001 a 0.08679543,0.08358078 0 0 0 -0.0852,0.08197 z m 0.28289,-1.77127 q -0.56899,0.454873 0.15269,0.562563 0.91136,0.136623 2.18114,-0.102868 a 0.1060833,0.11251259 86.9 0 0 0.09,-0.09483 q 0.0322,-0.326287 -0.17198,-0.462909 -1.1621,-0.776337 -2.25186,0.09805 z"
     id="path22"
     style="fill:#ffffff;fill-opacity:1;stroke:none;stroke-width:0.160732;stroke-opacity:1" />
  <path
     fill="#1f1f1f"
     d="m 44.70476,8.105983 q 0.102869,0.239491 0.213774,0.01286 l 1.65715,-3.386629 a 0.13180046,0.13822975 11.9 0 1 0.112513,-0.07715 q 0.909744,-0.05626 1.687689,0.118941 a 0.13662243,0.13662243 0 0 1 0.09322,0.192879 q -1.411229,2.878715 -2.724412,5.209333 -0.297354,0.527202 -0.573814,0.667039 -0.343967,0.173591 -0.713651,-0.008 -0.249135,-0.122156 -0.433977,-0.487018 -0.68472,-1.343722 -1.274607,-2.735664 -0.107691,-0.253957 -0.212167,0.0016 -0.530416,1.279429 -1.187811,2.571716 -0.218596,0.43237 -0.527202,0.583458 -0.769908,0.376114 -1.266571,-0.562563 -1.399978,-2.65369 -2.832102,-5.313809 a 0.10769062,0.10769062 0 0 1 0.07876,-0.157517 q 0.847059,-0.135015 1.612144,-0.04018 0.311821,0.03857 0.458087,0.342359 l 1.478737,3.058735 a 0.05304165,0.05304165 0 0 0 0.09001,0.0096 Q 40.745922,7.731467 40.991842,7.122292 41.369563,6.18683 41.805147,5.278693 42.226266,4.404309 43.197089,4.770779 a 0.20091534,0.18162747 1.2 0 1 0.109298,0.102868 z"
     id="path24"
     style="fill:#ffffff;fill-opacity:1;stroke:none;stroke-width:0.160732;stroke-opacity:1" />
  <path
     fill="#65a165"
     d="M 5.511804,16.954295 4.687247,16.070267 a 0.12697849,0.12215653 46.8 0 0 -0.178413,-0.0096 Q 3.989669,16.568581 3.375672,16.82736 2.943302,17.010595 2.562366,16.9238 2.09785,16.817716 1.822998,16.454462 1.487067,16.012448 1.588329,15.409702 q 0.09644,-0.580244 0.54649,-1.014221 0.740975,-0.715258 1.816274,-0.962786 2.218106,-0.511129 4.51497,-0.605961 a 0.28931809,0.28771076 88.9 0 1 0.298962,0.289318 q -0.0032,2.517068 -0.723296,4.879832 -0.261993,0.866347 -0.548097,1.237639 -0.438799,0.570599 -1.17013,0.797232 -0.393795,0.122156 -0.777945,0.01125 Q 5.179088,19.934314 4.946026,19.611242 4.693676,19.264061 4.669566,18.83812 4.645456,18.407358 4.91388,17.9557 5.153371,17.553869 5.511804,17.22919 a 0.20091534,0.18644943 47.2 0 0 0,-0.274852 z"
     id="path34"
     style="fill:#d8d8ce;fill-opacity:1;stroke-width:0.160732" />
</svg>
