<svg viewBox="0 0 15 15" version="1.1" id="svg12" sodipodi:docname="plus-circle-1427-svgrepo-com.svg" inkscape:export-filename="plus-circle-1427-svgrepo-com.svg" inkscape:export-xdpi="96" inkscape:export-ydpi="96">
   <g id="Page-1" fill-rule="evenodd" transform="scale(0.71428571,0.75)">
      <g id="Dribbble-Light-Preview" transform="translate(-179,-600)">
         <g id="icons" transform="translate(56,160)">
            <path d="m 137.7,450 c 0,0.552 -0.4704,1 -1.05,1 h -2.1 v 2 c 0,0.552 -0.4704,1 -1.05,1 -0.5796,0 -1.05,-0.448 -1.05,-1 v -2 h -2.1 c -0.5796,0 -1.05,-0.448 -1.05,-1 0,-0.552 0.4704,-1 1.05,-1 h 2.1 v -2 c 0,-0.552 0.4704,-1 1.05,-1 0.5796,0 1.05,0.448 1.05,1 v 2 h 2.1 c 0.5796,0 1.05,0.448 1.05,1 m -4.2,8 c -4.63155,0 -8.4,-3.589 -8.4,-8 0,-4.411 3.76845,-8 8.4,-8 4.63155,0 8.4,3.589 8.4,8 0,4.411 -3.76845,8 -8.4,8 m 0,-18 c -5.79915,0 -10.5,4.477 -10.5,10 0,5.523 4.70085,10 10.5,10 5.79915,0 10.5,-4.477 10.5,-10 0,-5.523 -4.70085,-10 -10.5,-10" id="plus_circle-[#1427]" />
         </g>
      </g>
   </g>
</svg>
