<?xml version="1.0" encoding="UTF-8" standalone="no"?>
<!-- Uploaded to: SVG Repo, www.svgrepo.com, Generator: SVG Repo Mixer Tools -->

<svg
   width="24"
   height="24"
   viewBox="0 0 24 24"
   version="1.1"
   id="svg7572"
   sodipodi:docname="Profile.svg"
   inkscape:version="1.2.2 (732a01da63, 2022-12-09)"
   xmlns:inkscape="http://www.inkscape.org/namespaces/inkscape"
   xmlns:sodipodi="http://sodipodi.sourceforge.net/DTD/sodipodi-0.dtd"
   xmlns="http://www.w3.org/2000/svg"
   xmlns:svg="http://www.w3.org/2000/svg"
   xmlns:rdf="http://www.w3.org/1999/02/22-rdf-syntax-ns#"
   xmlns:cc="http://creativecommons.org/ns#"
   xmlns:dc="http://purl.org/dc/elements/1.1/">
 
 
  <g
     id="Page-1"
     stroke="none"
     stroke-width="1"
     fill="none"
     fill-rule="evenodd"
     transform="matrix(1.2000001,0,0,1.2000001,1.299664e-7,-1.4827214e-5)"
     style="stroke-width:0.83333326;stroke-dasharray:none">
    <g
       id="Dribbble-Light-Preview"
       transform="translate(-140,-2159)"
       fill="#000000"
       style="stroke-width:0.83333326;stroke-dasharray:none">
      <g
         id="icons"
         transform="translate(56,160)"
         style="stroke-width:0.83333326;stroke-dasharray:none">
        <path
           d="M 100.56255,2017 H 87.438171 c -0.706391,0 -1.228017,-0.697 -0.96159,-1.338 1.236185,-2.964 4.14035,-4.662 7.523268,-4.662 3.383939,0 6.288101,1.698 7.524291,4.662 0.26643,0.641 -0.2552,1.338 -0.96159,1.338 m -10.645886,-12 c 0,-2.206 1.83233,-4 4.083185,-4 2.251877,0 4.083185,1.794 4.083185,4 0,2.206 -1.831308,4 -4.083185,4 -2.250855,0 -4.083185,-1.794 -4.083185,-4 m 14.039006,11.636 c -0.74211,-3.359 -3.06341,-5.838 -6.118648,-6.963 1.618983,-1.277 2.563218,-3.342 2.216148,-5.603 -0.402193,-2.623 -2.62957,-4.722 -5.318348,-5.028 -3.711615,-0.423 -6.85975,2.407 -6.85975,5.958 0,1.89 0.894218,3.574 2.288625,4.673 -3.056264,1.125 -5.376533,3.604 -6.119673,6.963 -0.26949,1.221 0.734973,2.364 2.009948,2.364 h 15.891758 c 1.27599,0 2.28046,-1.143 2.00994,-2.364"
           id="profile_round-[#1342]"
           style="stroke-width:0.83333326;stroke-dasharray:none" />
      </g>
    </g>
  </g>
  <metadata
     id="metadata9155">
    <rdf:RDF>
      <cc:Work
         rdf:about="">
        <dc:title>profile_round [#1342]</dc:title>
      </cc:Work>
    </rdf:RDF>
  </metadata>
</svg>
