<?xml version="1.0" encoding="UTF-8" standalone="no"?>
<!-- Uploaded to: SVG Repo, www.svgrepo.com, Generator: SVG Repo Mixer Tools -->

<svg
   width="24"
   height="17"
   viewBox="0 0 24 17"
   version="1.1"
   id="svg4148"
   sodipodi:docname="Sources.svg"
   inkscape:version="1.2.2 (732a01da63, 2022-12-09)"
   xmlns:inkscape="http://www.inkscape.org/namespaces/inkscape"
   xmlns:sodipodi="http://sodipodi.sourceforge.net/DTD/sodipodi-0.dtd"
   xmlns="http://www.w3.org/2000/svg"
   xmlns:svg="http://www.w3.org/2000/svg"
   xmlns:rdf="http://www.w3.org/1999/02/22-rdf-syntax-ns#"
   xmlns:cc="http://creativecommons.org/ns#"
   xmlns:dc="http://purl.org/dc/elements/1.1/">

  <g
     id="Page-1"
     stroke="none"
     stroke-width="1"
     fill="none"
     fill-rule="evenodd"
     transform="matrix(1.1998293,0,0,1.1998293,-3.1220707e-7,0.1011306)"
     style="stroke-width:0.83345189;stroke-dasharray:none">
    <g
       id="Dribbble-Light-Preview"
       transform="translate(-140,-3442)"
       fill="#000000"
       style="stroke-width:0.83345189;stroke-dasharray:none">
      <g
         id="icons"
         transform="translate(56,160)"
         style="stroke-width:0.83345189;stroke-dasharray:none">
        <path
           d="m 98.896833,3293.9707 c -10.434,0 -11.106,0.3061 -12.106,-0.4347 -2.096,-1.5532 0.352,-4.7754 2.448,-3.1135 -2.056,-6.7533 8.325,-9.0344 9.663,-2.4235 3.942997,-0.1406 4.254997,5.9717 -0.005,5.9717 m 1.550997,-7.7393 c 0,0 -0.702997,-1.8105 -2.558997,-3.0497 -4.323,-2.8852 -10.162,-0.1944 -10.822,4.904 -0.005,0.037 -0.059,0.039 -0.029,0.032 -0.952,0.2353 -1.77,0.8085 -2.316,1.5842 -1.115,1.5831 -0.988,3.897 0.73,5.2918 1.592,1.292 2.08,0.971 13.321,0.971 1.317997,0 2.564997,-0.4835 3.509997,-1.294 3,-2.5712 1.878,-7.3147 -1.835,-8.4392"
           id="cloud-[#1076]"
           style="stroke-width:0.83345189;stroke-dasharray:none" />
      </g>
    </g>
  </g>
  <metadata
     id="metadata5721">
    <rdf:RDF>
      <cc:Work
         rdf:about="">
        <dc:title>cloud [#1076]</dc:title>
      </cc:Work>
    </rdf:RDF>
  </metadata>
</svg>
